<svg width="250" height="250" viewBox="0 0 250 250" fill="none" xmlns="http://www.w3.org/2000/svg">
<path d="M3 125C3 57.6213 57.6213 3 125 3C192.379 3 247 57.6213 247 125C247 192.379 192.379 247 125 247C57.6213 247 3 192.379 3 125Z" fill="#F1F1F1" stroke="#7EB693" stroke-width="6"/>
<path d="M8.5 126C8.5 61.1065 61.1065 8.5 126 8.5C190.893 8.5 243.5 61.1065 243.5 126C243.5 190.893 190.893 243.5 126 243.5C61.1065 243.5 8.5 190.893 8.5 126Z" stroke="white" stroke-width="5"/>
<path d="M89.7071 93.0791V123H83.8008V99.8877L76.7051 102.144V97.4883L89.0713 93.0791H89.7071ZM119.885 105.445V110.613C119.885 112.855 119.646 114.79 119.168 116.417C118.689 118.03 117.999 119.356 117.096 120.396C116.208 121.421 115.148 122.18 113.918 122.672C112.687 123.164 111.32 123.41 109.816 123.41C108.613 123.41 107.492 123.26 106.453 122.959C105.414 122.645 104.477 122.159 103.643 121.503C102.823 120.847 102.112 120.02 101.51 119.021C100.923 118.01 100.471 116.807 100.157 115.412C99.8425 114.018 99.6852 112.418 99.6852 110.613V105.445C99.6852 103.203 99.9245 101.282 100.403 99.6826C100.895 98.0693 101.586 96.75 102.474 95.7246C103.377 94.6992 104.443 93.9473 105.674 93.4688C106.904 92.9766 108.271 92.7305 109.775 92.7305C110.978 92.7305 112.092 92.8877 113.118 93.2021C114.157 93.5029 115.093 93.9746 115.927 94.6172C116.761 95.2598 117.472 96.0869 118.06 97.0986C118.648 98.0967 119.099 99.293 119.414 100.688C119.728 102.068 119.885 103.654 119.885 105.445ZM113.959 111.393V104.646C113.959 103.565 113.897 102.622 113.774 101.815C113.665 101.009 113.494 100.325 113.261 99.7646C113.029 99.1904 112.742 98.7256 112.4 98.3701C112.058 98.0146 111.669 97.7549 111.231 97.5908C110.794 97.4268 110.308 97.3447 109.775 97.3447C109.105 97.3447 108.51 97.4746 107.991 97.7344C107.485 97.9941 107.054 98.4111 106.699 98.9854C106.343 99.5459 106.07 100.298 105.879 101.241C105.701 102.171 105.612 103.306 105.612 104.646V111.393C105.612 112.473 105.667 113.423 105.776 114.243C105.899 115.063 106.077 115.768 106.309 116.355C106.555 116.93 106.842 117.401 107.171 117.771C107.512 118.126 107.902 118.386 108.34 118.55C108.791 118.714 109.283 118.796 109.816 118.796C110.472 118.796 111.053 118.666 111.559 118.406C112.079 118.133 112.516 117.709 112.872 117.135C113.241 116.547 113.514 115.781 113.692 114.838C113.87 113.895 113.959 112.746 113.959 111.393ZM144.363 105.445V110.613C144.363 112.855 144.123 114.79 143.645 116.417C143.166 118.03 142.476 119.356 141.574 120.396C140.685 121.421 139.625 122.18 138.395 122.672C137.164 123.164 135.797 123.41 134.293 123.41C133.09 123.41 131.969 123.26 130.93 122.959C129.891 122.645 128.954 122.159 128.12 121.503C127.3 120.847 126.589 120.02 125.988 119.021C125.4 118.01 124.949 116.807 124.634 115.412C124.32 114.018 124.162 112.418 124.162 110.613V105.445C124.162 103.203 124.402 101.282 124.88 99.6826C125.372 98.0693 126.063 96.75 126.951 95.7246C127.854 94.6992 128.92 93.9473 130.151 93.4688C131.381 92.9766 132.748 92.7305 134.252 92.7305C135.455 92.7305 136.57 92.8877 137.595 93.2021C138.634 93.5029 139.571 93.9746 140.405 94.6172C141.239 95.2598 141.95 96.0869 142.537 97.0986C143.125 98.0967 143.576 99.293 143.891 100.688C144.205 102.068 144.363 103.654 144.363 105.445ZM138.436 111.393V104.646C138.436 103.565 138.374 102.622 138.251 101.815C138.142 101.009 137.971 100.325 137.739 99.7646C137.506 99.1904 137.219 98.7256 136.877 98.3701C136.535 98.0146 136.146 97.7549 135.708 97.5908C135.271 97.4268 134.785 97.3447 134.252 97.3447C133.582 97.3447 132.988 97.4746 132.468 97.7344C131.962 97.9941 131.532 98.4111 131.176 98.9854C130.821 99.5459 130.547 100.298 130.356 101.241C130.178 102.171 130.089 103.306 130.089 104.646V111.393C130.089 112.473 130.144 113.423 130.253 114.243C130.376 115.063 130.554 115.768 130.786 116.355C131.033 116.93 131.32 117.401 131.648 117.771C131.99 118.126 132.379 118.386 132.817 118.55C133.268 118.714 133.76 118.796 134.293 118.796C134.95 118.796 135.531 118.666 136.036 118.406C136.556 118.133 136.993 117.709 137.349 117.135C137.718 116.547 137.992 115.781 138.169 114.838C138.347 113.895 138.436 112.746 138.436 111.393ZM148.66 100.462V98.8828C148.66 97.748 148.906 96.7158 149.398 95.7861C149.891 94.8564 150.615 94.1113 151.572 93.5508C152.529 92.9902 153.705 92.71 155.1 92.71C156.535 92.71 157.731 92.9902 158.688 93.5508C159.659 94.1113 160.384 94.8564 160.862 95.7861C161.354 96.7158 161.601 97.748 161.601 98.8828V100.462C161.601 101.569 161.354 102.588 160.862 103.518C160.384 104.447 159.666 105.192 158.709 105.753C157.752 106.313 156.569 106.594 155.161 106.594C153.739 106.594 152.543 106.313 151.572 105.753C150.615 105.192 149.891 104.447 149.398 103.518C148.906 102.588 148.66 101.569 148.66 100.462ZM152.577 98.8828V100.462C152.577 100.94 152.666 101.398 152.844 101.836C153.035 102.26 153.322 102.608 153.705 102.882C154.102 103.142 154.58 103.271 155.141 103.271C155.728 103.271 156.207 103.142 156.576 102.882C156.945 102.608 157.219 102.26 157.396 101.836C157.574 101.398 157.663 100.94 157.663 100.462V98.8828C157.663 98.377 157.567 97.9121 157.376 97.4883C157.198 97.0508 156.918 96.7021 156.535 96.4424C156.166 96.1689 155.687 96.0322 155.1 96.0322C154.553 96.0322 154.088 96.1689 153.705 96.4424C153.322 96.7021 153.035 97.0508 152.844 97.4883C152.666 97.9121 152.577 98.377 152.577 98.8828ZM162.934 117.258V115.679C162.934 114.558 163.18 113.532 163.672 112.603C164.178 111.673 164.909 110.928 165.866 110.367C166.837 109.807 168.026 109.526 169.435 109.526C170.856 109.526 172.046 109.807 173.003 110.367C173.96 110.928 174.685 111.673 175.177 112.603C175.669 113.532 175.915 114.558 175.915 115.679V117.258C175.915 118.379 175.669 119.404 175.177 120.334C174.698 121.264 173.98 122.009 173.023 122.569C172.066 123.13 170.884 123.41 169.476 123.41C168.054 123.41 166.857 123.13 165.887 122.569C164.916 122.009 164.178 121.264 163.672 120.334C163.18 119.404 162.934 118.379 162.934 117.258ZM166.871 115.679V117.258C166.871 117.75 166.98 118.215 167.199 118.652C167.418 119.09 167.719 119.438 168.102 119.698C168.498 119.958 168.956 120.088 169.476 120.088C170.132 120.088 170.644 119.958 171.014 119.698C171.383 119.438 171.636 119.09 171.772 118.652C171.923 118.215 171.998 117.75 171.998 117.258V115.679C171.998 115.187 171.902 114.729 171.711 114.305C171.519 113.867 171.232 113.519 170.85 113.259C170.48 112.985 170.009 112.849 169.435 112.849C168.86 112.849 168.382 112.985 167.999 113.259C167.63 113.519 167.35 113.867 167.158 114.305C166.967 114.729 166.871 115.187 166.871 115.679ZM170.891 97.4062L156.31 120.744L153.438 119.227L168.019 95.8887L170.891 97.4062Z" fill="#274C5B"/>
<path d="M102.623 152.558C102.623 153.548 102.5 154.45 102.254 155.265C102.008 156.073 101.633 156.771 101.129 157.356C100.631 157.942 99.9981 158.394 99.2305 158.71C98.463 159.021 97.5548 159.176 96.5059 159.176C95.4571 159.176 94.5489 159.021 93.7813 158.71C93.0137 158.394 92.378 157.942 91.8741 157.356C91.3761 156.771 91.004 156.07 90.7579 155.256C90.5118 154.441 90.3887 153.536 90.3887 152.54C90.3887 151.21 90.6055 150.053 91.0391 149.068C91.4786 148.078 92.1524 147.311 93.0606 146.766C93.9688 146.221 95.1231 145.948 96.5235 145.948C97.918 145.948 99.0636 146.221 99.96 146.766C100.862 147.311 101.53 148.078 101.964 149.068C102.403 150.059 102.623 151.222 102.623 152.558ZM93.2452 152.558C93.2452 153.454 93.3565 154.228 93.5792 154.878C93.8077 155.522 94.1622 156.021 94.6427 156.372C95.1231 156.718 95.7442 156.891 96.5059 156.891C97.2794 156.891 97.9063 156.718 98.3868 156.372C98.8673 156.021 99.2159 155.522 99.4327 154.878C99.6553 154.228 99.7667 153.454 99.7667 152.558C99.7667 151.21 99.5147 150.149 99.0108 149.376C98.5069 148.603 97.6778 148.216 96.5235 148.216C95.7559 148.216 95.129 148.392 94.6427 148.743C94.1622 149.089 93.8077 149.587 93.5792 150.237C93.3565 150.882 93.2452 151.655 93.2452 152.558ZM110.92 148.989C111.054 148.989 111.21 148.998 111.385 149.016C111.567 149.027 111.714 149.045 111.825 149.068L111.623 151.582C111.535 151.553 111.409 151.532 111.245 151.521C111.087 151.503 110.949 151.494 110.832 151.494C110.486 151.494 110.149 151.538 109.821 151.626C109.499 151.714 109.209 151.857 108.951 152.057C108.693 152.25 108.488 152.508 108.336 152.83C108.189 153.146 108.116 153.536 108.116 153.999V159H105.435V149.174H107.466L107.861 150.826H107.993C108.186 150.492 108.426 150.188 108.714 149.912C109.007 149.631 109.338 149.408 109.707 149.244C110.082 149.074 110.486 148.989 110.92 148.989ZM116.843 163.324C115.472 163.324 114.423 163.084 113.697 162.604C112.976 162.129 112.616 161.461 112.616 160.6C112.616 160.008 112.8 159.513 113.169 159.114C113.538 158.716 114.08 158.432 114.795 158.262C114.52 158.145 114.28 157.954 114.075 157.69C113.869 157.421 113.767 157.137 113.767 156.838C113.767 156.463 113.875 156.152 114.092 155.906C114.309 155.654 114.622 155.408 115.033 155.168C114.517 154.945 114.107 154.588 113.802 154.096C113.503 153.604 113.354 153.023 113.354 152.355C113.354 151.641 113.509 151.034 113.82 150.536C114.136 150.032 114.593 149.648 115.191 149.385C115.794 149.121 116.527 148.989 117.388 148.989C117.57 148.989 117.781 149.001 118.021 149.024C118.261 149.048 118.481 149.074 118.68 149.104C118.885 149.133 119.023 149.156 119.093 149.174H122.521V150.536L120.983 150.932C121.123 151.148 121.229 151.38 121.299 151.626C121.369 151.872 121.405 152.133 121.405 152.408C121.405 153.463 121.036 154.286 120.297 154.878C119.565 155.464 118.545 155.757 117.239 155.757C116.928 155.739 116.635 155.716 116.36 155.687C116.225 155.792 116.122 155.903 116.052 156.021C115.982 156.138 115.947 156.261 115.947 156.39C115.947 156.519 115.999 156.627 116.105 156.715C116.216 156.797 116.38 156.861 116.597 156.908C116.82 156.949 117.095 156.97 117.423 156.97H119.093C120.171 156.97 120.992 157.201 121.554 157.664C122.122 158.127 122.407 158.807 122.407 159.703C122.407 160.852 121.926 161.742 120.965 162.375C120.01 163.008 118.636 163.324 116.843 163.324ZM116.957 161.575C117.596 161.575 118.144 161.514 118.601 161.391C119.064 161.273 119.418 161.104 119.664 160.881C119.911 160.664 120.034 160.403 120.034 160.099C120.034 159.853 119.96 159.656 119.814 159.51C119.673 159.369 119.456 159.27 119.163 159.211C118.876 159.152 118.507 159.123 118.056 159.123H116.667C116.339 159.123 116.043 159.176 115.78 159.281C115.522 159.387 115.317 159.533 115.164 159.721C115.012 159.914 114.936 160.137 114.936 160.389C114.936 160.758 115.112 161.048 115.463 161.259C115.821 161.47 116.319 161.575 116.957 161.575ZM117.388 154.122C117.892 154.122 118.261 153.967 118.495 153.656C118.73 153.346 118.847 152.924 118.847 152.391C118.847 151.799 118.724 151.356 118.478 151.063C118.238 150.765 117.874 150.615 117.388 150.615C116.896 150.615 116.527 150.765 116.281 151.063C116.035 151.356 115.911 151.799 115.911 152.391C115.911 152.924 116.032 153.346 116.272 153.656C116.518 153.967 116.89 154.122 117.388 154.122ZM128.532 148.972C129.851 148.972 130.861 149.259 131.564 149.833C132.268 150.407 132.619 151.28 132.619 152.452V159H130.747L130.229 157.664H130.158C129.877 158.016 129.59 158.303 129.297 158.525C129.004 158.748 128.667 158.912 128.286 159.018C127.905 159.123 127.442 159.176 126.897 159.176C126.317 159.176 125.796 159.064 125.333 158.842C124.876 158.619 124.516 158.279 124.252 157.822C123.988 157.359 123.856 156.773 123.856 156.064C123.856 155.021 124.223 154.254 124.955 153.762C125.688 153.264 126.786 152.988 128.251 152.936L129.956 152.883V152.452C129.956 151.937 129.821 151.559 129.552 151.318C129.282 151.078 128.907 150.958 128.427 150.958C127.952 150.958 127.486 151.025 127.029 151.16C126.572 151.295 126.115 151.465 125.658 151.67L124.771 149.859C125.292 149.584 125.875 149.367 126.52 149.209C127.17 149.051 127.841 148.972 128.532 148.972ZM129.956 154.447L128.919 154.482C128.052 154.506 127.448 154.661 127.108 154.948C126.774 155.235 126.607 155.613 126.607 156.082C126.607 156.492 126.728 156.785 126.968 156.961C127.208 157.131 127.521 157.216 127.908 157.216C128.482 157.216 128.966 157.046 129.358 156.706C129.757 156.366 129.956 155.883 129.956 155.256V154.447ZM141.329 148.989C142.378 148.989 143.221 149.276 143.86 149.851C144.499 150.419 144.818 151.333 144.818 152.593V159H142.137V153.261C142.137 152.558 142.008 152.027 141.751 151.67C141.499 151.312 141.1 151.134 140.555 151.134C139.735 151.134 139.175 151.412 138.877 151.969C138.578 152.525 138.428 153.328 138.428 154.377V159H135.748V149.174H137.796L138.156 150.431H138.305C138.516 150.091 138.777 149.815 139.088 149.604C139.404 149.394 139.753 149.238 140.133 149.139C140.52 149.039 140.919 148.989 141.329 148.989ZM150.618 149.174V159H147.938V149.174H150.618ZM149.282 145.324C149.681 145.324 150.024 145.418 150.311 145.605C150.598 145.787 150.741 146.13 150.741 146.634C150.741 147.132 150.598 147.478 150.311 147.671C150.024 147.858 149.681 147.952 149.282 147.952C148.878 147.952 148.532 147.858 148.245 147.671C147.964 147.478 147.824 147.132 147.824 146.634C147.824 146.13 147.964 145.787 148.245 145.605C148.532 145.418 148.878 145.324 149.282 145.324ZM157.79 159.176C156.817 159.176 155.988 159 155.303 158.648C154.617 158.291 154.096 157.74 153.738 156.996C153.381 156.252 153.202 155.3 153.202 154.14C153.202 152.938 153.404 151.96 153.809 151.204C154.219 150.442 154.784 149.883 155.505 149.525C156.231 149.168 157.072 148.989 158.027 148.989C158.707 148.989 159.293 149.057 159.785 149.191C160.283 149.32 160.717 149.476 161.086 149.657L160.295 151.731C159.873 151.562 159.48 151.424 159.117 151.318C158.754 151.207 158.391 151.151 158.027 151.151C157.559 151.151 157.169 151.263 156.858 151.485C156.548 151.702 156.316 152.03 156.164 152.47C156.012 152.909 155.935 153.46 155.935 154.122C155.935 154.772 156.017 155.312 156.182 155.739C156.346 156.167 156.583 156.486 156.893 156.697C157.204 156.902 157.582 157.005 158.027 157.005C158.584 157.005 159.079 156.932 159.513 156.785C159.946 156.633 160.368 156.422 160.778 156.152V158.446C160.368 158.704 159.937 158.889 159.486 159C159.041 159.117 158.476 159.176 157.79 159.176Z" fill="#274C5B"/>
</svg>
