<svg width="250" height="250" viewBox="0 0 250 250" fill="none" xmlns="http://www.w3.org/2000/svg">
<path d="M3 125C3 57.6213 57.6213 3 125 3C192.379 3 247 57.6213 247 125C247 192.379 192.379 247 125 247C57.6213 247 3 192.379 3 125Z" fill="#F1F1F1" stroke="#7EB693" stroke-width="6"/>
<path d="M8.5 126C8.5 61.1065 61.1065 8.5 126 8.5C190.893 8.5 243.5 61.1065 243.5 126C243.5 190.893 190.893 243.5 126 243.5C61.1065 243.5 8.5 190.893 8.5 126Z" stroke="white" stroke-width="5"/>
<path d="M109.941 118.386V123H89.515V119.062L99.1742 108.706C100.145 107.626 100.911 106.676 101.471 105.855C102.032 105.021 102.435 104.276 102.681 103.62C102.941 102.95 103.071 102.314 103.071 101.713C103.071 100.811 102.92 100.038 102.619 99.3955C102.319 98.7393 101.874 98.2334 101.286 97.8779C100.712 97.5225 100.001 97.3447 99.1537 97.3447C98.2513 97.3447 97.472 97.5635 96.8158 98.001C96.1732 98.4385 95.681 99.0469 95.3392 99.8262C95.0111 100.605 94.847 101.487 94.847 102.472H88.9203C88.9203 100.694 89.3441 99.0674 90.1918 97.5908C91.0394 96.1006 92.2357 94.918 93.7806 94.043C95.3255 93.1543 97.1576 92.71 99.2767 92.71C101.369 92.71 103.132 93.0518 104.568 93.7354C106.017 94.4053 107.111 95.376 107.849 96.6475C108.601 97.9053 108.977 99.4092 108.977 101.159C108.977 102.144 108.82 103.107 108.505 104.051C108.191 104.98 107.74 105.91 107.152 106.84C106.577 107.756 105.88 108.686 105.06 109.629C104.24 110.572 103.33 111.55 102.332 112.562L97.1439 118.386H109.941ZM134.11 114.817C134.11 116.69 133.673 118.27 132.798 119.555C131.923 120.826 130.72 121.79 129.188 122.446C127.671 123.089 125.948 123.41 124.021 123.41C122.093 123.41 120.363 123.089 118.832 122.446C117.301 121.79 116.091 120.826 115.202 119.555C114.313 118.27 113.869 116.69 113.869 114.817C113.869 113.56 114.122 112.425 114.628 111.413C115.134 110.388 115.838 109.513 116.74 108.788C117.656 108.05 118.729 107.489 119.96 107.106C121.19 106.71 122.53 106.512 123.979 106.512C125.921 106.512 127.657 106.854 129.188 107.537C130.72 108.221 131.923 109.185 132.798 110.429C133.673 111.673 134.11 113.136 134.11 114.817ZM128.163 114.428C128.163 113.512 127.985 112.726 127.63 112.069C127.288 111.399 126.803 110.887 126.174 110.531C125.545 110.176 124.813 109.998 123.979 109.998C123.146 109.998 122.414 110.176 121.785 110.531C121.156 110.887 120.664 111.399 120.309 112.069C119.967 112.726 119.796 113.512 119.796 114.428C119.796 115.33 119.967 116.109 120.309 116.766C120.664 117.422 121.156 117.928 121.785 118.283C122.428 118.625 123.173 118.796 124.021 118.796C124.868 118.796 125.6 118.625 126.215 118.283C126.844 117.928 127.322 117.422 127.65 116.766C127.992 116.109 128.163 115.33 128.163 114.428ZM133.475 101.057C133.475 102.574 133.071 103.921 132.265 105.097C131.458 106.259 130.337 107.168 128.901 107.824C127.479 108.48 125.853 108.809 124.021 108.809C122.175 108.809 120.534 108.48 119.099 107.824C117.663 107.168 116.542 106.259 115.735 105.097C114.929 103.921 114.525 102.574 114.525 101.057C114.525 99.252 114.929 97.7344 115.735 96.5039C116.556 95.2598 117.677 94.3164 119.099 93.6738C120.534 93.0312 122.161 92.71 123.979 92.71C125.825 92.71 127.459 93.0312 128.881 93.6738C130.316 94.3164 131.438 95.2598 132.244 96.5039C133.064 97.7344 133.475 99.252 133.475 101.057ZM127.568 101.323C127.568 100.517 127.425 99.8193 127.138 99.2314C126.851 98.6299 126.44 98.165 125.907 97.8369C125.388 97.5088 124.745 97.3447 123.979 97.3447C123.241 97.3447 122.605 97.502 122.072 97.8164C121.553 98.1309 121.149 98.5889 120.862 99.1904C120.589 99.7783 120.452 100.489 120.452 101.323C120.452 102.13 120.589 102.841 120.862 103.456C121.149 104.058 121.56 104.529 122.093 104.871C122.626 105.213 123.269 105.384 124.021 105.384C124.772 105.384 125.408 105.213 125.928 104.871C126.461 104.529 126.864 104.058 127.138 103.456C127.425 102.841 127.568 102.13 127.568 101.323ZM144.027 109.403L139.31 108.275L141.012 93.1406H157.788V97.9189H145.873L145.134 104.543C145.531 104.311 146.132 104.064 146.939 103.805C147.746 103.531 148.648 103.395 149.646 103.395C151.095 103.395 152.381 103.62 153.502 104.071C154.623 104.522 155.573 105.179 156.352 106.04C157.145 106.901 157.747 107.954 158.157 109.198C158.567 110.442 158.772 111.851 158.772 113.423C158.772 114.749 158.567 116.014 158.157 117.217C157.747 118.406 157.125 119.473 156.291 120.416C155.457 121.346 154.411 122.077 153.153 122.61C151.895 123.144 150.405 123.41 148.682 123.41C147.397 123.41 146.153 123.219 144.95 122.836C143.76 122.453 142.687 121.886 141.73 121.134C140.787 120.382 140.028 119.473 139.454 118.406C138.893 117.326 138.599 116.096 138.572 114.715H144.437C144.519 115.562 144.738 116.294 145.093 116.909C145.463 117.511 145.948 117.976 146.549 118.304C147.151 118.632 147.855 118.796 148.662 118.796C149.414 118.796 150.056 118.652 150.589 118.365C151.123 118.078 151.553 117.682 151.881 117.176C152.21 116.656 152.449 116.055 152.599 115.371C152.763 114.674 152.845 113.922 152.845 113.115C152.845 112.309 152.75 111.577 152.558 110.921C152.367 110.265 152.073 109.697 151.676 109.219C151.28 108.74 150.774 108.371 150.159 108.111C149.557 107.852 148.853 107.722 148.047 107.722C146.953 107.722 146.105 107.893 145.504 108.234C144.916 108.576 144.423 108.966 144.027 109.403Z" fill="#274C5B"/>
<path d="M65.8924 159L64.9608 155.941H60.2762L59.3446 159H56.409L60.9442 146.098H64.2752L68.828 159H65.8924ZM64.3104 153.656L63.3788 150.668C63.3202 150.469 63.2411 150.214 63.1414 149.903C63.0477 149.587 62.951 149.268 62.8514 148.945C62.7577 148.617 62.6815 148.333 62.6229 148.093C62.5643 148.333 62.4823 148.632 62.3768 148.989C62.2772 149.341 62.1805 149.675 62.0868 149.991C61.993 150.308 61.9256 150.533 61.8846 150.668L60.9618 153.656H64.3104ZM74.5932 159.176C73.6206 159.176 72.7915 159 72.1059 158.648C71.4204 158.291 70.8989 157.74 70.5415 156.996C70.1841 156.252 70.0054 155.3 70.0054 154.14C70.0054 152.938 70.2075 151.96 70.6118 151.204C71.022 150.442 71.5874 149.883 72.3081 149.525C73.0347 149.168 73.8755 148.989 74.8306 148.989C75.5102 148.989 76.0962 149.057 76.5884 149.191C77.0864 149.32 77.52 149.476 77.8891 149.657L77.0981 151.731C76.6763 151.562 76.2837 151.424 75.9204 151.318C75.5571 151.207 75.1938 151.151 74.8306 151.151C74.3618 151.151 73.9722 151.263 73.6616 151.485C73.3511 151.702 73.1196 152.03 72.9673 152.47C72.8149 152.909 72.7388 153.46 72.7388 154.122C72.7388 154.772 72.8208 155.312 72.9848 155.739C73.1489 156.167 73.3862 156.486 73.6968 156.697C74.0073 156.902 74.3852 157.005 74.8306 157.005C75.3872 157.005 75.8823 156.932 76.3159 156.785C76.7495 156.633 77.1714 156.422 77.5815 156.152V158.446C77.1714 158.704 76.7407 158.889 76.2895 159C75.8442 159.117 75.2788 159.176 74.5932 159.176ZM84.3663 157.04C84.6593 157.04 84.9435 157.011 85.2189 156.952C85.5001 156.894 85.7784 156.82 86.0538 156.732V158.728C85.7667 158.856 85.4093 158.962 84.9816 159.044C84.5597 159.132 84.0968 159.176 83.5929 159.176C83.007 159.176 82.4796 159.082 82.0109 158.895C81.548 158.701 81.1818 158.37 80.9122 157.901C80.6486 157.427 80.5167 156.768 80.5167 155.924V151.187H79.2335V150.053L80.7101 149.156L81.4835 147.082H83.1974V149.174H85.9484V151.187H83.1974V155.924C83.1974 156.299 83.3029 156.58 83.5138 156.768C83.7306 156.949 84.0148 157.04 84.3663 157.04ZM91.0896 149.174V159H88.4089V149.174H91.0896ZM89.7537 145.324C90.1521 145.324 90.4949 145.418 90.782 145.605C91.0691 145.787 91.2127 146.13 91.2127 146.634C91.2127 147.132 91.0691 147.478 90.782 147.671C90.4949 147.858 90.1521 147.952 89.7537 147.952C89.3494 147.952 89.0037 147.858 88.7166 147.671C88.4353 147.478 88.2947 147.132 88.2947 146.634C88.2947 146.13 88.4353 145.787 88.7166 145.605C89.0037 145.418 89.3494 145.324 89.7537 145.324ZM96.6088 159L92.8647 149.174H95.6684L97.5668 154.772C97.6723 155.101 97.7543 155.446 97.8129 155.81C97.8773 156.173 97.9213 156.498 97.9447 156.785H98.015C98.0326 156.475 98.0736 156.144 98.1381 155.792C98.2084 155.44 98.2992 155.101 98.4105 154.772L100.3 149.174H103.104L99.3598 159H96.6088ZM108.931 148.989C109.839 148.989 110.621 149.165 111.277 149.517C111.934 149.862 112.44 150.366 112.798 151.028C113.155 151.69 113.334 152.499 113.334 153.454V154.755H106.997C107.026 155.511 107.252 156.105 107.674 156.539C108.102 156.967 108.693 157.181 109.449 157.181C110.076 157.181 110.65 157.116 111.172 156.987C111.693 156.858 112.23 156.665 112.78 156.407V158.481C112.294 158.722 111.784 158.897 111.251 159.009C110.724 159.12 110.082 159.176 109.326 159.176C108.342 159.176 107.469 158.994 106.707 158.631C105.951 158.268 105.356 157.714 104.923 156.97C104.495 156.226 104.281 155.288 104.281 154.157C104.281 153.009 104.475 152.054 104.861 151.292C105.254 150.524 105.799 149.95 106.496 149.569C107.193 149.183 108.005 148.989 108.931 148.989ZM108.948 150.896C108.427 150.896 107.993 151.063 107.648 151.397C107.308 151.731 107.111 152.256 107.059 152.971H110.82C110.814 152.572 110.741 152.218 110.601 151.907C110.466 151.597 110.261 151.351 109.985 151.169C109.716 150.987 109.37 150.896 108.948 150.896ZM125.225 146.15C126.883 146.15 128.093 146.508 128.855 147.223C129.617 147.932 129.997 148.91 129.997 150.158C129.997 150.721 129.912 151.26 129.743 151.775C129.573 152.285 129.294 152.739 128.908 153.138C128.527 153.536 128.017 153.853 127.378 154.087C126.74 154.315 125.951 154.43 125.014 154.43H123.845V159H121.12V146.15H125.225ZM125.084 148.383H123.845V152.197H124.742C125.251 152.197 125.694 152.13 126.069 151.995C126.444 151.86 126.734 151.649 126.939 151.362C127.144 151.075 127.246 150.706 127.246 150.255C127.246 149.622 127.071 149.153 126.719 148.849C126.368 148.538 125.823 148.383 125.084 148.383ZM138.057 148.989C138.191 148.989 138.347 148.998 138.522 149.016C138.704 149.027 138.851 149.045 138.962 149.068L138.76 151.582C138.672 151.553 138.546 151.532 138.382 151.521C138.224 151.503 138.086 151.494 137.969 151.494C137.623 151.494 137.286 151.538 136.958 151.626C136.636 151.714 136.346 151.857 136.088 152.057C135.83 152.25 135.625 152.508 135.473 152.83C135.326 153.146 135.253 153.536 135.253 153.999V159H132.572V149.174H134.603L134.998 150.826H135.13C135.323 150.492 135.563 150.188 135.851 149.912C136.144 149.631 136.475 149.408 136.844 149.244C137.219 149.074 137.623 148.989 138.057 148.989ZM150.036 154.069C150.036 154.89 149.924 155.616 149.702 156.249C149.485 156.882 149.166 157.418 148.744 157.857C148.328 158.291 147.824 158.619 147.232 158.842C146.646 159.064 145.984 159.176 145.246 159.176C144.554 159.176 143.919 159.064 143.338 158.842C142.764 158.619 142.263 158.291 141.836 157.857C141.414 157.418 141.086 156.882 140.851 156.249C140.623 155.616 140.508 154.89 140.508 154.069C140.508 152.979 140.702 152.057 141.088 151.301C141.475 150.545 142.026 149.971 142.741 149.578C143.456 149.186 144.308 148.989 145.298 148.989C146.218 148.989 147.033 149.186 147.742 149.578C148.457 149.971 149.016 150.545 149.421 151.301C149.831 152.057 150.036 152.979 150.036 154.069ZM143.242 154.069C143.242 154.714 143.312 155.256 143.453 155.695C143.593 156.135 143.813 156.466 144.112 156.688C144.411 156.911 144.8 157.022 145.281 157.022C145.755 157.022 146.139 156.911 146.432 156.688C146.731 156.466 146.948 156.135 147.083 155.695C147.223 155.256 147.294 154.714 147.294 154.069C147.294 153.419 147.223 152.88 147.083 152.452C146.948 152.019 146.731 151.693 146.432 151.477C146.133 151.26 145.744 151.151 145.263 151.151C144.554 151.151 144.039 151.395 143.716 151.881C143.4 152.367 143.242 153.097 143.242 154.069ZM155.722 159.176C154.626 159.176 153.733 158.748 153.041 157.893C152.356 157.031 152.013 155.769 152.013 154.104C152.013 152.423 152.362 151.151 153.059 150.29C153.756 149.423 154.667 148.989 155.792 148.989C156.261 148.989 156.674 149.054 157.031 149.183C157.389 149.312 157.697 149.484 157.954 149.701C158.218 149.918 158.441 150.161 158.622 150.431H158.71C158.675 150.243 158.631 149.968 158.578 149.604C158.531 149.235 158.508 148.857 158.508 148.471V145.324H161.198V159H159.141L158.622 157.726H158.508C158.338 157.995 158.124 158.241 157.866 158.464C157.614 158.681 157.313 158.854 156.961 158.982C156.61 159.111 156.197 159.176 155.722 159.176ZM156.662 157.04C157.395 157.04 157.91 156.823 158.209 156.39C158.514 155.95 158.675 155.291 158.693 154.412V154.122C158.693 153.167 158.546 152.438 158.253 151.934C157.96 151.424 157.415 151.169 156.618 151.169C156.027 151.169 155.564 151.424 155.23 151.934C154.896 152.443 154.729 153.179 154.729 154.14C154.729 155.101 154.896 155.824 155.23 156.311C155.57 156.797 156.047 157.04 156.662 157.04ZM173.379 149.174V159H171.322L170.962 157.743H170.821C170.61 158.077 170.347 158.35 170.03 158.561C169.714 158.771 169.365 158.927 168.984 159.026C168.603 159.126 168.208 159.176 167.798 159.176C167.095 159.176 166.482 159.053 165.961 158.807C165.439 158.555 165.032 158.165 164.739 157.638C164.452 157.11 164.308 156.425 164.308 155.581V149.174H166.989V154.913C166.989 155.616 167.115 156.146 167.367 156.504C167.619 156.861 168.02 157.04 168.571 157.04C169.116 157.04 169.544 156.917 169.854 156.671C170.165 156.419 170.382 156.053 170.505 155.572C170.634 155.086 170.698 154.494 170.698 153.797V149.174H173.379ZM180.542 159.176C179.569 159.176 178.74 159 178.054 158.648C177.369 158.291 176.847 157.74 176.49 156.996C176.132 156.252 175.954 155.3 175.954 154.14C175.954 152.938 176.156 151.96 176.56 151.204C176.97 150.442 177.536 149.883 178.256 149.525C178.983 149.168 179.824 148.989 180.779 148.989C181.459 148.989 182.044 149.057 182.537 149.191C183.035 149.32 183.468 149.476 183.837 149.657L183.046 151.731C182.625 151.562 182.232 151.424 181.869 151.318C181.505 151.207 181.142 151.151 180.779 151.151C180.31 151.151 179.92 151.263 179.61 151.485C179.299 151.702 179.068 152.03 178.916 152.47C178.763 152.909 178.687 153.46 178.687 154.122C178.687 154.772 178.769 155.312 178.933 155.739C179.097 156.167 179.334 156.486 179.645 156.697C179.956 156.902 180.334 157.005 180.779 157.005C181.335 157.005 181.831 156.932 182.264 156.785C182.698 156.633 183.12 156.422 183.53 156.152V158.446C183.12 158.704 182.689 158.889 182.238 159C181.793 159.117 181.227 159.176 180.542 159.176ZM190.315 157.04C190.608 157.04 190.892 157.011 191.167 156.952C191.448 156.894 191.727 156.82 192.002 156.732V158.728C191.715 158.856 191.358 158.962 190.93 159.044C190.508 159.132 190.045 159.176 189.541 159.176C188.955 159.176 188.428 159.082 187.959 158.895C187.496 158.701 187.13 158.37 186.861 157.901C186.597 157.427 186.465 156.768 186.465 155.924V151.187H185.182V150.053L186.658 149.156L187.432 147.082H189.146V149.174H191.897V151.187H189.146V155.924C189.146 156.299 189.251 156.58 189.462 156.768C189.679 156.949 189.963 157.04 190.315 157.04Z" fill="#274C5B"/>
</svg>
