<svg width="250" height="250" viewBox="0 0 250 250" fill="none" xmlns="http://www.w3.org/2000/svg">
<path d="M3 125C3 57.6213 57.6213 3 125 3C192.379 3 247 57.6213 247 125C247 192.379 192.379 247 125 247C57.6213 247 3 192.379 3 125Z" fill="#F1F1F1" stroke="#7EB693" stroke-width="6"/>
<path d="M8.5 126C8.5 61.1065 61.1065 8.5 126 8.5C190.893 8.5 243.5 61.1065 243.5 126C243.5 190.893 190.893 243.5 126 243.5C61.1065 243.5 8.5 190.893 8.5 126Z" stroke="white" stroke-width="5"/>
<path d="M85.4414 105.507H88.5996C89.6114 105.507 90.4454 105.336 91.1016 104.994C91.7579 104.639 92.2432 104.146 92.5577 103.518C92.8858 102.875 93.0498 102.13 93.0498 101.282C93.0498 100.517 92.8995 99.8398 92.5987 99.252C92.3116 98.6504 91.8672 98.1855 91.2657 97.8574C90.6641 97.5156 89.9053 97.3447 88.9893 97.3447C88.2647 97.3447 87.5948 97.4883 86.9795 97.7754C86.3643 98.0625 85.8721 98.4658 85.503 98.9854C85.1338 99.5049 84.9493 100.134 84.9493 100.872H79.0225C79.0225 99.2314 79.46 97.8027 80.335 96.5859C81.2237 95.3691 82.4131 94.4189 83.9034 93.7354C85.3936 93.0518 87.0342 92.71 88.8252 92.71C90.8487 92.71 92.6192 93.0381 94.1368 93.6943C95.6543 94.3369 96.837 95.2871 97.6846 96.5449C98.5323 97.8027 98.9561 99.3613 98.9561 101.221C98.9561 102.164 98.7373 103.08 98.2998 103.969C97.8623 104.844 97.2334 105.637 96.4131 106.348C95.6065 107.045 94.6221 107.605 93.46 108.029C92.2979 108.439 90.9922 108.645 89.543 108.645H85.4414V105.507ZM85.4414 109.998V106.942H89.543C91.17 106.942 92.5987 107.127 93.8291 107.496C95.0596 107.865 96.0918 108.398 96.9258 109.096C97.7598 109.779 98.3887 110.593 98.8125 111.536C99.2364 112.466 99.4483 113.498 99.4483 114.633C99.4483 116.027 99.1817 117.271 98.6485 118.365C98.1153 119.445 97.3633 120.361 96.3926 121.113C95.4356 121.865 94.3145 122.439 93.0293 122.836C91.7442 123.219 90.3428 123.41 88.8252 123.41C87.5674 123.41 86.3301 123.239 85.1133 122.897C83.9102 122.542 82.8164 122.016 81.8321 121.318C80.8614 120.607 80.0821 119.719 79.4942 118.652C78.92 117.572 78.6329 116.294 78.6329 114.817H84.5596C84.5596 115.583 84.751 116.267 85.1338 116.868C85.5166 117.47 86.043 117.941 86.7129 118.283C87.3965 118.625 88.1553 118.796 88.9893 118.796C89.9327 118.796 90.7393 118.625 91.4092 118.283C92.0928 117.928 92.6123 117.436 92.9678 116.807C93.337 116.164 93.5215 115.419 93.5215 114.571C93.5215 113.478 93.3233 112.603 92.9268 111.946C92.5303 111.276 91.9629 110.784 91.2246 110.47C90.4864 110.155 89.6114 109.998 88.5996 109.998H85.4414ZM123.987 114.817C123.987 116.69 123.549 118.27 122.674 119.555C121.799 120.826 120.596 121.79 119.065 122.446C117.548 123.089 115.825 123.41 113.897 123.41C111.969 123.41 110.24 123.089 108.709 122.446C107.177 121.79 105.967 120.826 105.079 119.555C104.19 118.27 103.746 116.69 103.746 114.817C103.746 113.56 103.999 112.425 104.505 111.413C105.01 110.388 105.715 109.513 106.617 108.788C107.533 108.05 108.606 107.489 109.837 107.106C111.067 106.71 112.407 106.512 113.856 106.512C115.798 106.512 117.534 106.854 119.065 107.537C120.596 108.221 121.799 109.185 122.674 110.429C123.549 111.673 123.987 113.136 123.987 114.817ZM118.04 114.428C118.04 113.512 117.862 112.726 117.507 112.069C117.165 111.399 116.679 110.887 116.05 110.531C115.422 110.176 114.69 109.998 113.856 109.998C113.022 109.998 112.291 110.176 111.662 110.531C111.033 110.887 110.541 111.399 110.185 112.069C109.843 112.726 109.673 113.512 109.673 114.428C109.673 115.33 109.843 116.109 110.185 116.766C110.541 117.422 111.033 117.928 111.662 118.283C112.304 118.625 113.049 118.796 113.897 118.796C114.745 118.796 115.476 118.625 116.091 118.283C116.72 117.928 117.199 117.422 117.527 116.766C117.869 116.109 118.04 115.33 118.04 114.428ZM123.351 101.057C123.351 102.574 122.948 103.921 122.141 105.097C121.335 106.259 120.214 107.168 118.778 107.824C117.356 108.48 115.729 108.809 113.897 108.809C112.051 108.809 110.411 108.48 108.975 107.824C107.54 107.168 106.419 106.259 105.612 105.097C104.805 103.921 104.402 102.574 104.402 101.057C104.402 99.252 104.805 97.7344 105.612 96.5039C106.432 95.2598 107.553 94.3164 108.975 93.6738C110.411 93.0312 112.038 92.71 113.856 92.71C115.702 92.71 117.336 93.0312 118.757 93.6738C120.193 94.3164 121.314 95.2598 122.121 96.5039C122.941 97.7344 123.351 99.252 123.351 101.057ZM117.445 101.323C117.445 100.517 117.301 99.8193 117.014 99.2314C116.727 98.6299 116.317 98.165 115.784 97.8369C115.264 97.5088 114.622 97.3447 113.856 97.3447C113.118 97.3447 112.482 97.502 111.949 97.8164C111.429 98.1309 111.026 98.5889 110.739 99.1904C110.466 99.7783 110.329 100.489 110.329 101.323C110.329 102.13 110.466 102.841 110.739 103.456C111.026 104.058 111.436 104.529 111.969 104.871C112.503 105.213 113.145 105.384 113.897 105.384C114.649 105.384 115.285 105.213 115.804 104.871C116.338 104.529 116.741 104.058 117.014 103.456C117.301 102.841 117.445 102.13 117.445 101.323ZM133.904 109.403L129.187 108.275L130.889 93.1406H147.664V97.9189H135.749L135.011 104.543C135.408 104.311 136.009 104.064 136.816 103.805C137.622 103.531 138.525 103.395 139.523 103.395C140.972 103.395 142.257 103.62 143.378 104.071C144.499 104.522 145.45 105.179 146.229 106.04C147.022 106.901 147.623 107.954 148.034 109.198C148.444 110.442 148.649 111.851 148.649 113.423C148.649 114.749 148.444 116.014 148.034 117.217C147.623 118.406 147.001 119.473 146.167 120.416C145.333 121.346 144.287 122.077 143.03 122.61C141.772 123.144 140.282 123.41 138.559 123.41C137.274 123.41 136.03 123.219 134.826 122.836C133.637 122.453 132.564 121.886 131.607 121.134C130.663 120.382 129.905 119.473 129.33 118.406C128.77 117.326 128.476 116.096 128.449 114.715H134.314C134.396 115.562 134.615 116.294 134.97 116.909C135.339 117.511 135.825 117.976 136.426 118.304C137.028 118.632 137.732 118.796 138.538 118.796C139.29 118.796 139.933 118.652 140.466 118.365C140.999 118.078 141.43 117.682 141.758 117.176C142.086 116.656 142.326 116.055 142.476 115.371C142.64 114.674 142.722 113.922 142.722 113.115C142.722 112.309 142.626 111.577 142.435 110.921C142.243 110.265 141.95 109.697 141.553 109.219C141.157 108.74 140.651 108.371 140.035 108.111C139.434 107.852 138.73 107.722 137.923 107.722C136.829 107.722 135.982 107.893 135.38 108.234C134.792 108.576 134.3 108.966 133.904 109.403ZM172.388 106.368V111.516H151.921V106.368H172.388ZM164.964 98.2676V120.006H159.365V98.2676H164.964Z" fill="#274C5B"/>
<path d="M61.439 152.558C61.439 153.548 61.3159 154.45 61.0698 155.265C60.8238 156.073 60.4488 156.771 59.9448 157.356C59.4468 157.942 58.814 158.394 58.0464 158.71C57.2788 159.021 56.3706 159.176 55.3218 159.176C54.273 159.176 53.3648 159.021 52.5972 158.71C51.8296 158.394 51.1939 157.942 50.69 157.356C50.1919 156.771 49.8198 156.07 49.5738 155.256C49.3277 154.441 49.2046 153.536 49.2046 152.54C49.2046 151.21 49.4214 150.053 49.855 149.068C50.2945 148.078 50.9683 147.311 51.8765 146.766C52.7847 146.221 53.939 145.948 55.3394 145.948C56.7339 145.948 57.8794 146.221 58.7759 146.766C59.6782 147.311 60.3462 148.078 60.7798 149.068C61.2193 150.059 61.439 151.222 61.439 152.558ZM52.0611 152.558C52.0611 153.454 52.1724 154.228 52.395 154.878C52.6236 155.522 52.9781 156.021 53.4585 156.372C53.939 156.718 54.5601 156.891 55.3218 156.891C56.0952 156.891 56.7222 156.718 57.2027 156.372C57.6831 156.021 58.0318 155.522 58.2486 154.878C58.4712 154.228 58.5825 153.454 58.5825 152.558C58.5825 151.21 58.3306 150.149 57.8267 149.376C57.3228 148.603 56.4937 148.216 55.3394 148.216C54.5718 148.216 53.9448 148.392 53.4585 148.743C52.9781 149.089 52.6236 149.587 52.395 150.237C52.1724 150.882 52.0611 151.655 52.0611 152.558ZM69.7355 148.989C69.8703 148.989 70.0255 148.998 70.2013 149.016C70.383 149.027 70.5295 149.045 70.6408 149.068L70.4386 151.582C70.3507 151.553 70.2248 151.532 70.0607 151.521C69.9025 151.503 69.7648 151.494 69.6476 151.494C69.3019 151.494 68.965 151.538 68.6369 151.626C68.3146 151.714 68.0246 151.857 67.7668 152.057C67.5089 152.25 67.3039 152.508 67.1515 152.83C67.005 153.146 66.9318 153.536 66.9318 153.999V159H64.2511V149.174H66.2814L66.6769 150.826H66.8088C67.0021 150.492 67.2423 150.188 67.5295 149.912C67.8224 149.631 68.1535 149.408 68.5226 149.244C68.8976 149.074 69.3019 148.989 69.7355 148.989ZM75.659 163.324C74.2879 163.324 73.2391 163.084 72.5125 162.604C71.7918 162.129 71.4314 161.461 71.4314 160.6C71.4314 160.008 71.616 159.513 71.9852 159.114C72.3543 158.716 72.8963 158.432 73.6111 158.262C73.3357 158.145 73.0955 157.954 72.8904 157.69C72.6854 157.421 72.5828 157.137 72.5828 156.838C72.5828 156.463 72.6912 156.152 72.908 155.906C73.1248 155.654 73.4383 155.408 73.8484 155.168C73.3328 154.945 72.9227 154.588 72.618 154.096C72.3191 153.604 72.1697 153.023 72.1697 152.355C72.1697 151.641 72.325 151.034 72.6355 150.536C72.952 150.032 73.409 149.648 74.0066 149.385C74.6102 149.121 75.3426 148.989 76.2039 148.989C76.3855 148.989 76.5965 149.001 76.8367 149.024C77.077 149.048 77.2967 149.074 77.4959 149.104C77.701 149.133 77.8387 149.156 77.909 149.174H81.3367V150.536L79.7986 150.932C79.9393 151.148 80.0447 151.38 80.115 151.626C80.1854 151.872 80.2205 152.133 80.2205 152.408C80.2205 153.463 79.8514 154.286 79.1131 154.878C78.3807 155.464 77.3611 155.757 76.0545 155.757C75.7439 155.739 75.451 155.716 75.1756 155.687C75.0408 155.792 74.9383 155.903 74.868 156.021C74.7977 156.138 74.7625 156.261 74.7625 156.39C74.7625 156.519 74.8152 156.627 74.9207 156.715C75.032 156.797 75.1961 156.861 75.4129 156.908C75.6355 156.949 75.9109 156.97 76.2391 156.97H77.909C78.9871 156.97 79.8074 157.201 80.3699 157.664C80.9383 158.127 81.2225 158.807 81.2225 159.703C81.2225 160.852 80.742 161.742 79.7811 162.375C78.826 163.008 77.452 163.324 75.659 163.324ZM75.7732 161.575C76.4119 161.575 76.9598 161.514 77.4168 161.391C77.8797 161.273 78.2342 161.104 78.4803 160.881C78.7264 160.664 78.8494 160.403 78.8494 160.099C78.8494 159.853 78.7762 159.656 78.6297 159.51C78.4891 159.369 78.2723 159.27 77.9793 159.211C77.6922 159.152 77.323 159.123 76.8719 159.123H75.4832C75.1551 159.123 74.8592 159.176 74.5955 159.281C74.3377 159.387 74.1326 159.533 73.9803 159.721C73.8279 159.914 73.7518 160.137 73.7518 160.389C73.7518 160.758 73.9275 161.048 74.2791 161.259C74.6365 161.47 75.1346 161.575 75.7732 161.575ZM76.2039 154.122C76.7078 154.122 77.077 153.967 77.3113 153.656C77.5457 153.346 77.6629 152.924 77.6629 152.391C77.6629 151.799 77.5398 151.356 77.2938 151.063C77.0535 150.765 76.6902 150.615 76.2039 150.615C75.7117 150.615 75.3426 150.765 75.0965 151.063C74.8504 151.356 74.7273 151.799 74.7273 152.391C74.7273 152.924 74.8475 153.346 75.0877 153.656C75.3338 153.967 75.7059 154.122 76.2039 154.122ZM87.3481 148.972C88.6665 148.972 89.6772 149.259 90.3803 149.833C91.0834 150.407 91.435 151.28 91.435 152.452V159H89.5629L89.0444 157.664H88.9741C88.6928 158.016 88.4057 158.303 88.1127 158.525C87.8198 158.748 87.4829 158.912 87.102 159.018C86.7211 159.123 86.2582 159.176 85.7133 159.176C85.1332 159.176 84.6118 159.064 84.1489 158.842C83.6918 158.619 83.3315 158.279 83.0678 157.822C82.8041 157.359 82.6723 156.773 82.6723 156.064C82.6723 155.021 83.0385 154.254 83.7709 153.762C84.5034 153.264 85.602 152.988 87.0668 152.936L88.7719 152.883V152.452C88.7719 151.937 88.6372 151.559 88.3676 151.318C88.0981 151.078 87.7231 150.958 87.2426 150.958C86.768 150.958 86.3022 151.025 85.8452 151.16C85.3881 151.295 84.9311 151.465 84.4741 151.67L83.5864 149.859C84.1079 149.584 84.6909 149.367 85.3354 149.209C85.9858 149.051 86.6567 148.972 87.3481 148.972ZM88.7719 154.447L87.7348 154.482C86.8676 154.506 86.2641 154.661 85.9243 154.948C85.5903 155.235 85.4233 155.613 85.4233 156.082C85.4233 156.492 85.5434 156.785 85.7836 156.961C86.0239 157.131 86.3373 157.216 86.7241 157.216C87.2983 157.216 87.7817 157.046 88.1743 156.706C88.5727 156.366 88.7719 155.883 88.7719 155.256V154.447ZM100.145 148.989C101.193 148.989 102.037 149.276 102.676 149.851C103.315 150.419 103.634 151.333 103.634 152.593V159H100.953V153.261C100.953 152.558 100.824 152.027 100.566 151.67C100.315 151.312 99.9161 151.134 99.3712 151.134C98.5509 151.134 97.9913 151.412 97.6925 151.969C97.3936 152.525 97.2442 153.328 97.2442 154.377V159H94.5636V149.174H96.6114L96.9718 150.431H97.1212C97.3321 150.091 97.5929 149.815 97.9034 149.604C98.2198 149.394 98.5684 149.238 98.9493 149.139C99.336 149.039 99.7345 148.989 100.145 148.989ZM109.434 149.174V159H106.754V149.174H109.434ZM108.098 145.324C108.497 145.324 108.84 145.418 109.127 145.605C109.414 145.787 109.557 146.13 109.557 146.634C109.557 147.132 109.414 147.478 109.127 147.671C108.84 147.858 108.497 147.952 108.098 147.952C107.694 147.952 107.348 147.858 107.061 147.671C106.78 147.478 106.639 147.132 106.639 146.634C106.639 146.13 106.78 145.787 107.061 145.605C107.348 145.418 107.694 145.324 108.098 145.324ZM116.606 159.176C115.633 159.176 114.804 159 114.119 158.648C113.433 158.291 112.911 157.74 112.554 156.996C112.197 156.252 112.018 155.3 112.018 154.14C112.018 152.938 112.22 151.96 112.624 151.204C113.035 150.442 113.6 149.883 114.321 149.525C115.047 149.168 115.888 148.989 116.843 148.989C117.523 148.989 118.109 149.057 118.601 149.191C119.099 149.32 119.533 149.476 119.902 149.657L119.111 151.731C118.689 151.562 118.296 151.424 117.933 151.318C117.57 151.207 117.206 151.151 116.843 151.151C116.374 151.151 115.985 151.263 115.674 151.485C115.364 151.702 115.132 152.03 114.98 152.47C114.828 152.909 114.751 153.46 114.751 154.122C114.751 154.772 114.833 155.312 114.997 155.739C115.161 156.167 115.399 156.486 115.709 156.697C116.02 156.902 116.398 157.005 116.843 157.005C117.4 157.005 117.895 156.932 118.328 156.785C118.762 156.633 119.184 156.422 119.594 156.152V158.446C119.184 158.704 118.753 158.889 118.302 159C117.857 159.117 117.291 159.176 116.606 159.176ZM139.149 152.558C139.149 153.548 139.026 154.45 138.78 155.265C138.534 156.073 138.159 156.771 137.655 157.356C137.157 157.942 136.524 158.394 135.756 158.71C134.989 159.021 134.081 159.176 133.032 159.176C131.983 159.176 131.075 159.021 130.307 158.71C129.54 158.394 128.904 157.942 128.4 157.356C127.902 156.771 127.53 156.07 127.284 155.256C127.038 154.441 126.915 153.536 126.915 152.54C126.915 151.21 127.131 150.053 127.565 149.068C128.005 148.078 128.678 147.311 129.587 146.766C130.495 146.221 131.649 145.948 133.049 145.948C134.444 145.948 135.589 146.221 136.486 146.766C137.388 147.311 138.056 148.078 138.49 149.068C138.929 150.059 139.149 151.222 139.149 152.558ZM129.771 152.558C129.771 153.454 129.882 154.228 130.105 154.878C130.334 155.522 130.688 156.021 131.169 156.372C131.649 156.718 132.27 156.891 133.032 156.891C133.805 156.891 134.432 156.718 134.913 156.372C135.393 156.021 135.742 155.522 135.959 154.878C136.181 154.228 136.293 153.454 136.293 152.558C136.293 151.21 136.041 150.149 135.537 149.376C135.033 148.603 134.204 148.216 133.049 148.216C132.282 148.216 131.655 148.392 131.169 148.743C130.688 149.089 130.334 149.587 130.105 150.237C129.882 150.882 129.771 151.655 129.771 152.558ZM147.446 148.989C147.58 148.989 147.736 148.998 147.911 149.016C148.093 149.027 148.24 149.045 148.351 149.068L148.149 151.582C148.061 151.553 147.935 151.532 147.771 151.521C147.613 151.503 147.475 151.494 147.358 151.494C147.012 151.494 146.675 151.538 146.347 151.626C146.025 151.714 145.735 151.857 145.477 152.057C145.219 152.25 145.014 152.508 144.862 152.83C144.715 153.146 144.642 153.536 144.642 153.999V159H141.961V149.174H143.991L144.387 150.826H144.519C144.712 150.492 144.952 150.188 145.24 149.912C145.533 149.631 145.864 149.408 146.233 149.244C146.608 149.074 147.012 148.989 147.446 148.989ZM154.485 159.176C153.513 159.176 152.684 159 151.998 158.648C151.312 158.291 150.791 157.74 150.434 156.996C150.076 156.252 149.897 155.3 149.897 154.14C149.897 152.938 150.1 151.96 150.504 151.204C150.914 150.442 151.479 149.883 152.2 149.525C152.927 149.168 153.768 148.989 154.723 148.989C155.402 148.989 155.988 149.057 156.48 149.191C156.978 149.32 157.412 149.476 157.781 149.657L156.99 151.731C156.568 151.562 156.176 151.424 155.812 151.318C155.449 151.207 155.086 151.151 154.723 151.151C154.254 151.151 153.864 151.263 153.554 151.485C153.243 151.702 153.012 152.03 152.859 152.47C152.707 152.909 152.631 153.46 152.631 154.122C152.631 154.772 152.713 155.312 152.877 155.739C153.041 156.167 153.278 156.486 153.589 156.697C153.899 156.902 154.277 157.005 154.723 157.005C155.279 157.005 155.774 156.932 156.208 156.785C156.642 156.633 157.063 156.422 157.474 156.152V158.446C157.063 158.704 156.633 158.889 156.182 159C155.736 159.117 155.171 159.176 154.485 159.176ZM162.799 145.324V148.11C162.799 148.597 162.782 149.06 162.747 149.499C162.717 149.938 162.694 150.249 162.676 150.431H162.817C163.028 150.091 163.277 149.815 163.564 149.604C163.857 149.394 164.179 149.238 164.531 149.139C164.882 149.039 165.26 148.989 165.665 148.989C166.374 148.989 166.992 149.115 167.519 149.367C168.046 149.613 168.457 150.003 168.75 150.536C169.043 151.063 169.189 151.749 169.189 152.593V159H166.508V153.261C166.508 152.558 166.379 152.027 166.122 151.67C165.864 151.312 165.465 151.134 164.926 151.134C164.387 151.134 163.962 151.26 163.652 151.512C163.341 151.758 163.122 152.124 162.993 152.61C162.864 153.091 162.799 153.68 162.799 154.377V159H160.119V145.324H162.799ZM176.334 148.972C177.653 148.972 178.663 149.259 179.366 149.833C180.07 150.407 180.421 151.28 180.421 152.452V159H178.549L178.03 157.664H177.96C177.679 158.016 177.392 158.303 177.099 158.525C176.806 158.748 176.469 158.912 176.088 159.018C175.707 159.123 175.244 159.176 174.699 159.176C174.119 159.176 173.598 159.064 173.135 158.842C172.678 158.619 172.318 158.279 172.054 157.822C171.79 157.359 171.658 156.773 171.658 156.064C171.658 155.021 172.025 154.254 172.757 153.762C173.489 153.264 174.588 152.988 176.053 152.936L177.758 152.883V152.452C177.758 151.937 177.623 151.559 177.354 151.318C177.084 151.078 176.709 150.958 176.229 150.958C175.754 150.958 175.288 151.025 174.831 151.16C174.374 151.295 173.917 151.465 173.46 151.67L172.572 149.859C173.094 149.584 173.677 149.367 174.321 149.209C174.972 149.051 175.643 148.972 176.334 148.972ZM177.758 154.447L176.721 154.482C175.854 154.506 175.25 154.661 174.91 154.948C174.576 155.235 174.409 155.613 174.409 156.082C174.409 156.492 174.529 156.785 174.77 156.961C175.01 157.131 175.323 157.216 175.71 157.216C176.284 157.216 176.768 157.046 177.16 156.706C177.559 156.366 177.758 155.883 177.758 155.256V154.447ZM186.661 159.176C185.565 159.176 184.672 158.748 183.98 157.893C183.295 157.031 182.952 155.769 182.952 154.104C182.952 152.423 183.301 151.151 183.998 150.29C184.695 149.423 185.606 148.989 186.731 148.989C187.2 148.989 187.613 149.054 187.971 149.183C188.328 149.312 188.636 149.484 188.893 149.701C189.157 149.918 189.38 150.161 189.561 150.431H189.649C189.614 150.243 189.57 149.968 189.517 149.604C189.471 149.235 189.447 148.857 189.447 148.471V145.324H192.137V159H190.08L189.561 157.726H189.447C189.277 157.995 189.063 158.241 188.806 158.464C188.554 158.681 188.252 158.854 187.9 158.982C187.549 159.111 187.136 159.176 186.661 159.176ZM187.601 157.04C188.334 157.04 188.849 156.823 189.148 156.39C189.453 155.95 189.614 155.291 189.632 154.412V154.122C189.632 153.167 189.485 152.438 189.192 151.934C188.899 151.424 188.354 151.169 187.557 151.169C186.966 151.169 186.503 151.424 186.169 151.934C185.835 152.443 185.668 153.179 185.668 154.14C185.668 155.101 185.835 155.824 186.169 156.311C186.509 156.797 186.986 157.04 187.601 157.04ZM202.156 156.082C202.156 156.75 201.998 157.315 201.681 157.778C201.371 158.235 200.905 158.584 200.284 158.824C199.663 159.059 198.889 159.176 197.963 159.176C197.278 159.176 196.689 159.132 196.197 159.044C195.71 158.956 195.218 158.81 194.72 158.604V156.39C195.253 156.63 195.825 156.829 196.434 156.987C197.049 157.14 197.588 157.216 198.051 157.216C198.573 157.216 198.945 157.14 199.167 156.987C199.396 156.829 199.51 156.624 199.51 156.372C199.51 156.208 199.463 156.062 199.37 155.933C199.282 155.798 199.088 155.648 198.79 155.484C198.491 155.314 198.022 155.095 197.383 154.825C196.768 154.567 196.261 154.307 195.863 154.043C195.47 153.779 195.177 153.469 194.984 153.111C194.796 152.748 194.703 152.288 194.703 151.731C194.703 150.823 195.054 150.141 195.757 149.684C196.466 149.221 197.413 148.989 198.596 148.989C199.206 148.989 199.786 149.051 200.336 149.174C200.893 149.297 201.464 149.493 202.05 149.763L201.242 151.696C200.755 151.485 200.295 151.312 199.862 151.178C199.434 151.043 198.998 150.976 198.552 150.976C198.16 150.976 197.864 151.028 197.665 151.134C197.465 151.239 197.366 151.4 197.366 151.617C197.366 151.775 197.415 151.916 197.515 152.039C197.621 152.162 197.82 152.3 198.113 152.452C198.412 152.599 198.848 152.789 199.422 153.023C199.979 153.252 200.462 153.492 200.873 153.744C201.283 153.99 201.599 154.298 201.822 154.667C202.044 155.03 202.156 155.502 202.156 156.082Z" fill="#274C5B"/>
</svg>
