<svg width="250" height="250" viewBox="0 0 250 250" fill="none" xmlns="http://www.w3.org/2000/svg">
<path d="M3 125C3 57.6213 57.6213 3 125 3C192.379 3 247 57.6213 247 125C247 192.379 192.379 247 125 247C57.6213 247 3 192.379 3 125Z" fill="#F1F1F1" stroke="#7EB693" stroke-width="6"/>
<path d="M8.5 126C8.5 61.1065 61.1065 8.5 126 8.5C190.893 8.5 243.5 61.1065 243.5 126C243.5 190.893 190.893 243.5 126 243.5C61.1065 243.5 8.5 190.893 8.5 126Z" stroke="white" stroke-width="5"/>
<path d="M111.556 118.386V123H91.1302V119.062L100.789 108.706C101.76 107.626 102.526 106.676 103.086 105.855C103.647 105.021 104.05 104.276 104.296 103.62C104.556 102.95 104.686 102.314 104.686 101.713C104.686 100.811 104.536 100.038 104.235 99.3955C103.934 98.7393 103.49 98.2334 102.902 97.8779C102.327 97.5225 101.617 97.3447 100.769 97.3447C99.8666 97.3447 99.0873 97.5635 98.431 98.001C97.7884 98.4385 97.2962 99.0469 96.9545 99.8262C96.6263 100.605 96.4623 101.487 96.4623 102.472H90.5355C90.5355 100.694 90.9593 99.0674 91.807 97.5908C92.6546 96.1006 93.8509 94.918 95.3959 94.043C96.9408 93.1543 98.7728 92.71 100.892 92.71C102.984 92.71 104.747 93.0518 106.183 93.7354C107.632 94.4053 108.726 95.376 109.464 96.6475C110.216 97.9053 110.592 99.4092 110.592 101.159C110.592 102.144 110.435 103.107 110.12 104.051C109.806 104.98 109.355 105.91 108.767 106.84C108.193 107.756 107.495 108.686 106.675 109.629C105.855 110.572 104.946 111.55 103.948 112.562L98.7591 118.386H111.556ZM121.165 109.403L116.448 108.275L118.15 93.1406H134.926V97.9189H123.011L122.272 104.543C122.669 104.311 123.271 104.064 124.077 103.805C124.884 103.531 125.786 103.395 126.784 103.395C128.233 103.395 129.519 103.62 130.64 104.071C131.761 104.522 132.711 105.179 133.49 106.04C134.283 106.901 134.885 107.954 135.295 109.198C135.705 110.442 135.91 111.851 135.91 113.423C135.91 114.749 135.705 116.014 135.295 117.217C134.885 118.406 134.263 119.473 133.429 120.416C132.595 121.346 131.549 122.077 130.291 122.61C129.033 123.144 127.543 123.41 125.82 123.41C124.535 123.41 123.291 123.219 122.088 122.836C120.898 122.453 119.825 121.886 118.868 121.134C117.925 120.382 117.166 119.473 116.592 118.406C116.031 117.326 115.737 116.096 115.71 114.715H121.575C121.657 115.562 121.876 116.294 122.231 116.909C122.601 117.511 123.086 117.976 123.688 118.304C124.289 118.632 124.993 118.796 125.8 118.796C126.552 118.796 127.194 118.652 127.728 118.365C128.261 118.078 128.691 117.682 129.02 117.176C129.348 116.656 129.587 116.055 129.737 115.371C129.901 114.674 129.983 113.922 129.983 113.115C129.983 112.309 129.888 111.577 129.696 110.921C129.505 110.265 129.211 109.697 128.814 109.219C128.418 108.74 127.912 108.371 127.297 108.111C126.695 107.852 125.991 107.722 125.185 107.722C124.091 107.722 123.243 107.893 122.642 108.234C122.054 108.576 121.562 108.966 121.165 109.403ZM159.649 106.368V111.516H139.182V106.368H159.649ZM152.225 98.2676V120.006H146.627V98.2676H152.225Z" fill="#274C5B"/>
<path d="M52.6809 151.441L55.3615 146.15H58.2971L54.0344 153.999V159H51.3273V154.087L47.0647 146.15H50.0178L52.6809 151.441ZM64.1151 148.989C65.0233 148.989 65.8055 149.165 66.4618 149.517C67.118 149.862 67.6248 150.366 67.9823 151.028C68.3397 151.69 68.5184 152.499 68.5184 153.454V154.755H62.1815C62.2108 155.511 62.4364 156.105 62.8582 156.539C63.286 156.967 63.8778 157.181 64.6336 157.181C65.2606 157.181 65.8348 157.116 66.3563 156.987C66.8778 156.858 67.4139 156.665 67.9647 156.407V158.481C67.4784 158.722 66.9686 158.897 66.4354 159.009C65.908 159.12 65.2664 159.176 64.5106 159.176C63.5262 159.176 62.6532 158.994 61.8914 158.631C61.1356 158.268 60.5409 157.714 60.1073 156.97C59.6795 156.226 59.4657 155.288 59.4657 154.157C59.4657 153.009 59.659 152.054 60.0457 151.292C60.4383 150.524 60.9832 149.95 61.6805 149.569C62.3778 149.183 63.1893 148.989 64.1151 148.989ZM64.1327 150.896C63.6112 150.896 63.1776 151.063 62.8319 151.397C62.492 151.731 62.2957 152.256 62.243 152.971H66.0047C65.9989 152.572 65.9256 152.218 65.785 151.907C65.6502 151.597 65.4452 151.351 65.1698 151.169C64.9002 150.987 64.5545 150.896 64.1327 150.896ZM75.0835 148.972C76.4018 148.972 77.4126 149.259 78.1157 149.833C78.8188 150.407 79.1704 151.28 79.1704 152.452V159H77.2983L76.7798 157.664H76.7095C76.4282 158.016 76.1411 158.303 75.8481 158.525C75.5552 158.748 75.2182 158.912 74.8374 159.018C74.4565 159.123 73.9936 159.176 73.4487 159.176C72.8686 159.176 72.3472 159.064 71.8843 158.842C71.4272 158.619 71.0669 158.279 70.8032 157.822C70.5395 157.359 70.4077 156.773 70.4077 156.064C70.4077 155.021 70.7739 154.254 71.5063 153.762C72.2388 153.264 73.3374 152.988 74.8022 152.936L76.5073 152.883V152.452C76.5073 151.937 76.3725 151.559 76.103 151.318C75.8335 151.078 75.4585 150.958 74.978 150.958C74.5034 150.958 74.0376 151.025 73.5805 151.16C73.1235 151.295 72.6665 151.465 72.2095 151.67L71.3218 149.859C71.8432 149.584 72.4263 149.367 73.0708 149.209C73.7212 149.051 74.3921 148.972 75.0835 148.972ZM76.5073 154.447L75.4702 154.482C74.603 154.506 73.9995 154.661 73.6597 154.948C73.3257 155.235 73.1587 155.613 73.1587 156.082C73.1587 156.492 73.2788 156.785 73.519 156.961C73.7593 157.131 74.0727 157.216 74.4595 157.216C75.0337 157.216 75.5171 157.046 75.9097 156.706C76.3081 156.366 76.5073 155.883 76.5073 155.256V154.447ZM87.7833 148.989C87.9181 148.989 88.0734 148.998 88.2491 149.016C88.4308 149.027 88.5773 149.045 88.6886 149.068L88.4865 151.582C88.3986 151.553 88.2726 151.532 88.1085 151.521C87.9503 151.503 87.8126 151.494 87.6954 151.494C87.3497 151.494 87.0128 151.538 86.6847 151.626C86.3624 151.714 86.0724 151.857 85.8146 152.057C85.5568 152.25 85.3517 152.508 85.1993 152.83C85.0529 153.146 84.9796 153.536 84.9796 153.999V159H82.299V149.174H84.3292L84.7247 150.826H84.8566C85.0499 150.492 85.2902 150.188 85.5773 149.912C85.8702 149.631 86.2013 149.408 86.5704 149.244C86.9454 149.074 87.3497 148.989 87.7833 148.989ZM97.6882 156.082C97.6882 156.75 97.53 157.315 97.2136 157.778C96.9031 158.235 96.4373 158.584 95.8162 158.824C95.1951 159.059 94.4216 159.176 93.4959 159.176C92.8103 159.176 92.2214 159.132 91.7293 159.044C91.2429 158.956 90.7507 158.81 90.2527 158.604V156.39C90.7859 156.63 91.3572 156.829 91.9666 156.987C92.5818 157.14 93.1209 157.216 93.5838 157.216C94.1052 157.216 94.4773 157.14 94.7 156.987C94.9285 156.829 95.0427 156.624 95.0427 156.372C95.0427 156.208 94.9959 156.062 94.9021 155.933C94.8142 155.798 94.6209 155.648 94.322 155.484C94.0232 155.314 93.5545 155.095 92.9158 154.825C92.3005 154.567 91.7937 154.307 91.3953 154.043C91.0027 153.779 90.7097 153.469 90.5164 153.111C90.3289 152.748 90.2351 152.288 90.2351 151.731C90.2351 150.823 90.5867 150.141 91.2898 149.684C91.9988 149.221 92.9451 148.989 94.1287 148.989C94.738 148.989 95.3181 149.051 95.8689 149.174C96.4255 149.297 96.9968 149.493 97.5828 149.763L96.7742 151.696C96.2879 151.485 95.8279 151.312 95.3943 151.178C94.9666 151.043 94.53 150.976 94.0847 150.976C93.6922 150.976 93.3963 151.028 93.197 151.134C92.9978 151.239 92.8982 151.4 92.8982 151.617C92.8982 151.775 92.948 151.916 93.0476 152.039C93.1531 152.162 93.3523 152.3 93.6453 152.452C93.9441 152.599 94.3806 152.789 94.9548 153.023C95.5115 153.252 95.9949 153.492 96.405 153.744C96.8152 153.99 97.1316 154.298 97.3543 154.667C97.5769 155.03 97.6882 155.502 97.6882 156.082ZM114.106 154.069C114.106 154.89 113.994 155.616 113.772 156.249C113.555 156.882 113.235 157.418 112.814 157.857C112.398 158.291 111.894 158.619 111.302 158.842C110.716 159.064 110.054 159.176 109.315 159.176C108.624 159.176 107.988 159.064 107.408 158.842C106.834 158.619 106.333 158.291 105.905 157.857C105.483 157.418 105.155 156.882 104.921 156.249C104.692 155.616 104.578 154.89 104.578 154.069C104.578 152.979 104.772 152.057 105.158 151.301C105.545 150.545 106.096 149.971 106.811 149.578C107.525 149.186 108.378 148.989 109.368 148.989C110.288 148.989 111.103 149.186 111.812 149.578C112.526 149.971 113.086 150.545 113.49 151.301C113.9 152.057 114.106 152.979 114.106 154.069ZM107.312 154.069C107.312 154.714 107.382 155.256 107.523 155.695C107.663 156.135 107.883 156.466 108.182 156.688C108.481 156.911 108.87 157.022 109.351 157.022C109.825 157.022 110.209 156.911 110.502 156.688C110.801 156.466 111.018 156.135 111.152 155.695C111.293 155.256 111.363 154.714 111.363 154.069C111.363 153.419 111.293 152.88 111.152 152.452C111.018 152.019 110.801 151.693 110.502 151.477C110.203 151.26 109.814 151.151 109.333 151.151C108.624 151.151 108.108 151.395 107.786 151.881C107.47 152.367 107.312 153.097 107.312 154.069ZM122.112 151.187H119.792V159H117.111V151.187H115.634V149.895L117.111 149.174V148.453C117.111 147.615 117.252 146.965 117.533 146.502C117.82 146.033 118.221 145.705 118.737 145.518C119.258 145.324 119.874 145.228 120.583 145.228C121.104 145.228 121.579 145.271 122.007 145.359C122.434 145.441 122.783 145.535 123.052 145.641L122.367 147.609C122.162 147.545 121.939 147.486 121.699 147.434C121.459 147.381 121.183 147.354 120.873 147.354C120.498 147.354 120.222 147.469 120.047 147.697C119.877 147.92 119.792 148.207 119.792 148.559V149.174H122.112V151.187ZM131.946 159H129.266V146.15H136.631V148.383H131.946V151.696H136.306V153.92H131.946V159ZM143.319 148.972C144.637 148.972 145.648 149.259 146.351 149.833C147.054 150.407 147.406 151.28 147.406 152.452V159H145.534L145.015 157.664H144.945C144.664 158.016 144.377 158.303 144.084 158.525C143.791 158.748 143.454 158.912 143.073 159.018C142.692 159.123 142.229 159.176 141.684 159.176C141.104 159.176 140.583 159.064 140.12 158.842C139.663 158.619 139.302 158.279 139.039 157.822C138.775 157.359 138.643 156.773 138.643 156.064C138.643 155.021 139.009 154.254 139.742 153.762C140.474 153.264 141.573 152.988 143.038 152.936L144.743 152.883V152.452C144.743 151.937 144.608 151.559 144.338 151.318C144.069 151.078 143.694 150.958 143.213 150.958C142.739 150.958 142.273 151.025 141.816 151.16C141.359 151.295 140.902 151.465 140.445 151.67L139.557 149.859C140.079 149.584 140.662 149.367 141.306 149.209C141.957 149.051 142.628 148.972 143.319 148.972ZM144.743 154.447L143.706 154.482C142.838 154.506 142.235 154.661 141.895 154.948C141.561 155.235 141.394 155.613 141.394 156.082C141.394 156.492 141.514 156.785 141.754 156.961C141.995 157.131 142.308 157.216 142.695 157.216C143.269 157.216 143.753 157.046 144.145 156.706C144.544 156.366 144.743 155.883 144.743 155.256V154.447ZM156.019 148.989C156.154 148.989 156.309 148.998 156.485 149.016C156.666 149.027 156.813 149.045 156.924 149.068L156.722 151.582C156.634 151.553 156.508 151.532 156.344 151.521C156.186 151.503 156.048 151.494 155.931 151.494C155.585 151.494 155.248 151.538 154.92 151.626C154.598 151.714 154.308 151.857 154.05 152.057C153.792 152.25 153.587 152.508 153.435 152.83C153.288 153.146 153.215 153.536 153.215 153.999V159H150.534V149.174H152.565L152.96 150.826H153.092C153.285 150.492 153.526 150.188 153.813 149.912C154.106 149.631 154.437 149.408 154.806 149.244C155.181 149.074 155.585 148.989 156.019 148.989ZM170.608 148.989C171.722 148.989 172.562 149.276 173.131 149.851C173.705 150.419 173.992 151.333 173.992 152.593V159H171.303V153.261C171.303 152.558 171.183 152.027 170.942 151.67C170.702 151.312 170.33 151.134 169.826 151.134C169.117 151.134 168.613 151.389 168.314 151.898C168.016 152.402 167.866 153.126 167.866 154.069V159H165.185V153.261C165.185 152.792 165.133 152.399 165.027 152.083C164.922 151.767 164.761 151.529 164.544 151.371C164.327 151.213 164.049 151.134 163.709 151.134C163.211 151.134 162.818 151.26 162.531 151.512C162.25 151.758 162.048 152.124 161.925 152.61C161.808 153.091 161.749 153.68 161.749 154.377V159H159.068V149.174H161.116L161.476 150.431H161.626C161.825 150.091 162.074 149.815 162.373 149.604C162.678 149.394 163.012 149.238 163.375 149.139C163.738 149.039 164.107 148.989 164.482 148.989C165.203 148.989 165.812 149.106 166.31 149.341C166.814 149.575 167.201 149.938 167.471 150.431H167.708C168.001 149.927 168.414 149.561 168.947 149.332C169.486 149.104 170.04 148.989 170.608 148.989ZM179.792 149.174V159H177.112V149.174H179.792ZM178.457 145.324C178.855 145.324 179.198 145.418 179.485 145.605C179.772 145.787 179.916 146.13 179.916 146.634C179.916 147.132 179.772 147.478 179.485 147.671C179.198 147.858 178.855 147.952 178.457 147.952C178.052 147.952 177.707 147.858 177.419 147.671C177.138 147.478 176.998 147.132 176.998 146.634C176.998 146.13 177.138 145.787 177.419 145.605C177.707 145.418 178.052 145.324 178.457 145.324ZM188.555 148.989C189.604 148.989 190.447 149.276 191.086 149.851C191.725 150.419 192.044 151.333 192.044 152.593V159H189.363V153.261C189.363 152.558 189.235 152.027 188.977 151.67C188.725 151.312 188.326 151.134 187.781 151.134C186.961 151.134 186.402 151.412 186.103 151.969C185.804 152.525 185.654 153.328 185.654 154.377V159H182.974V149.174H185.022L185.382 150.431H185.531C185.742 150.091 186.003 149.815 186.314 149.604C186.63 149.394 186.979 149.238 187.36 149.139C187.746 149.039 188.145 148.989 188.555 148.989ZM198.038 163.324C196.667 163.324 195.618 163.084 194.891 162.604C194.171 162.129 193.81 161.461 193.81 160.6C193.81 160.008 193.995 159.513 194.364 159.114C194.733 158.716 195.275 158.432 195.99 158.262C195.715 158.145 195.474 157.954 195.269 157.69C195.064 157.421 194.962 157.137 194.962 156.838C194.962 156.463 195.07 156.152 195.287 155.906C195.504 155.654 195.817 155.408 196.227 155.168C195.712 154.945 195.302 154.588 194.997 154.096C194.698 153.604 194.549 153.023 194.549 152.355C194.549 151.641 194.704 151.034 195.014 150.536C195.331 150.032 195.788 149.648 196.386 149.385C196.989 149.121 197.721 148.989 198.583 148.989C198.764 148.989 198.975 149.001 199.216 149.024C199.456 149.048 199.676 149.074 199.875 149.104C200.08 149.133 200.218 149.156 200.288 149.174H203.716V150.536L202.178 150.932C202.318 151.148 202.424 151.38 202.494 151.626C202.564 151.872 202.599 152.133 202.599 152.408C202.599 153.463 202.23 154.286 201.492 154.878C200.76 155.464 199.74 155.757 198.433 155.757C198.123 155.739 197.83 155.716 197.554 155.687C197.42 155.792 197.317 155.903 197.247 156.021C197.177 156.138 197.141 156.261 197.141 156.39C197.141 156.519 197.194 156.627 197.3 156.715C197.411 156.797 197.575 156.861 197.792 156.908C198.014 156.949 198.29 156.97 198.618 156.97H200.288C201.366 156.97 202.186 157.201 202.749 157.664C203.317 158.127 203.601 158.807 203.601 159.703C203.601 160.852 203.121 161.742 202.16 162.375C201.205 163.008 199.831 163.324 198.038 163.324ZM198.152 161.575C198.791 161.575 199.339 161.514 199.796 161.391C200.259 161.273 200.613 161.104 200.859 160.881C201.105 160.664 201.228 160.403 201.228 160.099C201.228 159.853 201.155 159.656 201.009 159.51C200.868 159.369 200.651 159.27 200.358 159.211C200.071 159.152 199.702 159.123 199.251 159.123H197.862C197.534 159.123 197.238 159.176 196.974 159.281C196.717 159.387 196.512 159.533 196.359 159.721C196.207 159.914 196.131 160.137 196.131 160.389C196.131 160.758 196.306 161.048 196.658 161.259C197.015 161.47 197.513 161.575 198.152 161.575ZM198.583 154.122C199.087 154.122 199.456 153.967 199.69 153.656C199.925 153.346 200.042 152.924 200.042 152.391C200.042 151.799 199.919 151.356 199.673 151.063C199.432 150.765 199.069 150.615 198.583 150.615C198.091 150.615 197.721 150.765 197.475 151.063C197.229 151.356 197.106 151.799 197.106 152.391C197.106 152.924 197.226 153.346 197.467 153.656C197.713 153.967 198.085 154.122 198.583 154.122Z" fill="#274C5B"/>
</svg>
