<svg width="199" height="82" viewBox="0 0 199 82" fill="none" xmlns="http://www.w3.org/2000/svg">
<path d="M0.5 16C0.5 7.43959 7.43959 0.5 16 0.5H183C191.56 0.5 198.5 7.43959 198.5 16V66C198.5 74.5604 191.56 81.5 183 81.5H16C7.43959 81.5 0.5 74.5604 0.5 66V16Z" fill="#274C5B"/>
<path d="M172 61C182.493 61 191 52.4934 191 42C191 31.5066 182.493 23 172 23C161.507 23 153 31.5066 153 42C153 52.4934 161.507 61 172 61Z" fill="#335B6B"/>
<path d="M178.974 40.5H164M172.615 35L180 40.5L172.615 46V35Z" stroke="white" stroke-linecap="round" stroke-linejoin="round"/>
<path d="M0.5 16C0.5 7.43959 7.43959 0.5 16 0.5H183C191.56 0.5 198.5 7.43959 198.5 16V66C198.5 74.5604 191.56 81.5 183 81.5H16C7.43959 81.5 0.5 74.5604 0.5 66V16Z" stroke="#274C5B"/>
</svg>
