<svg width="197" height="82" viewBox="0 0 197 82" fill="none" xmlns="http://www.w3.org/2000/svg">
<path d="M0.5 16C0.5 7.43959 7.43959 0.5 16 0.5H181C189.56 0.5 196.5 7.43959 196.5 16V66C196.5 74.5604 189.56 81.5 181 81.5H16C7.43959 81.5 0.5 74.5604 0.5 66V16Z" fill="#274C5B"/>
<path d="M168.5 58C178.165 58 186 50.165 186 40.5C186 30.835 178.165 23 168.5 23C158.835 23 151 30.835 151 40.5C151 50.165 158.835 58 168.5 58Z" fill="#335B6B"/>
<path d="M174.103 40.5H161M168.538 36L175 40.5L168.538 45V36Z" stroke="white" stroke-linecap="round" stroke-linejoin="round"/>
<path d="M45.2021 43.4316C45.2021 44.1934 45.0176 44.8555 44.6484 45.418C44.2793 45.9805 43.7402 46.4141 43.0312 46.7188C42.3281 47.0234 41.4727 47.1758 40.4648 47.1758C40.0195 47.1758 39.583 47.1465 39.1553 47.0879C38.7334 47.0293 38.3262 46.9443 37.9336 46.833C37.5469 46.7158 37.1777 46.5723 36.8262 46.4023V43.8711C37.4355 44.1406 38.0684 44.3838 38.7246 44.6006C39.3809 44.8174 40.0312 44.9258 40.6758 44.9258C41.1211 44.9258 41.4785 44.8672 41.748 44.75C42.0234 44.6328 42.2227 44.4717 42.3457 44.2666C42.4688 44.0615 42.5303 43.8271 42.5303 43.5635C42.5303 43.2412 42.4219 42.9658 42.2051 42.7373C41.9883 42.5088 41.6895 42.2949 41.3086 42.0957C40.9336 41.8965 40.5088 41.6826 40.0342 41.4541C39.7354 41.3135 39.4102 41.1436 39.0586 40.9443C38.707 40.7393 38.373 40.4902 38.0566 40.1973C37.7402 39.9043 37.4795 39.5498 37.2744 39.1338C37.0752 38.7119 36.9756 38.208 36.9756 37.6221C36.9756 36.8545 37.1514 36.1982 37.5029 35.6533C37.8545 35.1084 38.3555 34.6924 39.0059 34.4053C39.6621 34.1123 40.4355 33.9658 41.3262 33.9658C41.9941 33.9658 42.6299 34.0449 43.2334 34.2031C43.8428 34.3555 44.4785 34.5781 45.1406 34.8711L44.2617 36.9893C43.6699 36.749 43.1396 36.5645 42.6709 36.4355C42.2021 36.3008 41.7246 36.2334 41.2383 36.2334C40.8984 36.2334 40.6084 36.2891 40.3682 36.4004C40.1279 36.5059 39.9463 36.6582 39.8232 36.8574C39.7002 37.0508 39.6387 37.2764 39.6387 37.5342C39.6387 37.8389 39.7266 38.0967 39.9023 38.3076C40.084 38.5127 40.3535 38.7119 40.7109 38.9053C41.0742 39.0986 41.5254 39.3242 42.0645 39.582C42.7207 39.8926 43.2803 40.2178 43.7432 40.5576C44.2119 40.8916 44.5723 41.2871 44.8242 41.7441C45.0762 42.1953 45.2021 42.7578 45.2021 43.4316ZM56.6979 37.1738V47H54.6412L54.2809 45.7432H54.1403C53.9293 46.0771 53.6657 46.3496 53.3493 46.5605C53.0329 46.7715 52.6842 46.9268 52.3034 47.0264C51.9225 47.126 51.527 47.1758 51.1168 47.1758C50.4137 47.1758 49.8014 47.0527 49.2799 46.8066C48.7584 46.5547 48.3512 46.165 48.0582 45.6377C47.7711 45.1104 47.6276 44.4248 47.6276 43.5811V37.1738H50.3082V42.9131C50.3082 43.6162 50.4342 44.1465 50.6862 44.5039C50.9381 44.8613 51.3395 45.04 51.8903 45.04C52.4352 45.04 52.8629 44.917 53.1735 44.6709C53.484 44.4189 53.7008 44.0527 53.8239 43.5723C53.9528 43.0859 54.0172 42.4941 54.0172 41.7969V37.1738H56.6979ZM62.5511 33.3242V36.5059C62.5511 36.875 62.5393 37.2412 62.5159 37.6045C62.4983 37.9678 62.4749 38.249 62.4456 38.4482H62.5511C62.8089 38.0439 63.1604 37.7012 63.6057 37.4199C64.0511 37.1328 64.6282 36.9893 65.3372 36.9893C66.4387 36.9893 67.3323 37.4199 68.0179 38.2812C68.7034 39.1426 69.0462 40.4053 69.0462 42.0693C69.0462 43.1885 68.888 44.1289 68.5716 44.8906C68.2552 45.6465 67.8128 46.2178 67.2444 46.6045C66.6761 46.9854 66.0169 47.1758 65.2669 47.1758C64.5462 47.1758 63.9778 47.0469 63.5618 46.7891C63.1458 46.5312 62.8089 46.2412 62.5511 45.9189H62.3665L61.9182 47H59.8704V33.3242H62.5511ZM64.4759 39.1338C64.0071 39.1338 63.635 39.2305 63.3596 39.4238C63.0843 39.6172 62.8821 39.9072 62.7532 40.2939C62.6302 40.6807 62.5628 41.1699 62.5511 41.7617V42.0518C62.5511 43.0068 62.6917 43.7393 62.9729 44.249C63.2542 44.7529 63.7669 45.0049 64.511 45.0049C65.0618 45.0049 65.4983 44.75 65.8206 44.2402C66.1487 43.7305 66.3128 42.9951 66.3128 42.0342C66.3128 41.0732 66.1487 40.3496 65.8206 39.8633C65.4925 39.377 65.0442 39.1338 64.4759 39.1338ZM78.4765 44.082C78.4765 44.75 78.3183 45.3154 78.0019 45.7783C77.6913 46.2354 77.2255 46.584 76.6044 46.8242C75.9833 47.0586 75.2099 47.1758 74.2841 47.1758C73.5986 47.1758 73.0097 47.1318 72.5175 47.0439C72.0312 46.9561 71.539 46.8096 71.0409 46.6045V44.3896C71.5741 44.6299 72.1454 44.8291 72.7548 44.9873C73.37 45.1396 73.9091 45.2158 74.372 45.2158C74.8935 45.2158 75.2655 45.1396 75.4882 44.9873C75.7167 44.8291 75.831 44.624 75.831 44.3721C75.831 44.208 75.7841 44.0615 75.6904 43.9326C75.6025 43.7979 75.4091 43.6484 75.1103 43.4844C74.8114 43.3145 74.3427 43.0947 73.704 42.8252C73.0888 42.5674 72.582 42.3066 72.1835 42.043C71.7909 41.7793 71.498 41.4688 71.3046 41.1113C71.1171 40.748 71.0234 40.2881 71.0234 39.7314C71.0234 38.8232 71.3749 38.1406 72.078 37.6836C72.787 37.2207 73.7333 36.9893 74.9169 36.9893C75.5263 36.9893 76.1064 37.0508 76.6572 37.1738C77.2138 37.2969 77.7851 37.4932 78.371 37.7627L77.5624 39.6963C77.0761 39.4854 76.6161 39.3125 76.1825 39.1777C75.7548 39.043 75.3183 38.9756 74.873 38.9756C74.4804 38.9756 74.1845 39.0283 73.9853 39.1338C73.7861 39.2393 73.6864 39.4004 73.6864 39.6172C73.6864 39.7754 73.7363 39.916 73.8359 40.0391C73.9413 40.1621 74.1405 40.2998 74.4335 40.4521C74.7323 40.5986 75.1689 40.7891 75.7431 41.0234C76.2997 41.252 76.7831 41.4922 77.1933 41.7441C77.6034 41.9902 77.9198 42.2979 78.1425 42.667C78.3652 43.0303 78.4765 43.502 78.4765 44.082ZM84.9185 47.1758C83.9459 47.1758 83.1168 47 82.4312 46.6484C81.7457 46.291 81.2242 45.7402 80.8668 44.9961C80.5093 44.252 80.3306 43.2998 80.3306 42.1396C80.3306 40.9385 80.5328 39.96 80.9371 39.2041C81.3472 38.4424 81.9127 37.8828 82.6334 37.5254C83.3599 37.168 84.2007 36.9893 85.1558 36.9893C85.8355 36.9893 86.4214 37.0566 86.9136 37.1914C87.4117 37.3203 87.8453 37.4756 88.2144 37.6572L87.4234 39.7314C87.0015 39.5615 86.6089 39.4238 86.2457 39.3184C85.8824 39.207 85.5191 39.1514 85.1558 39.1514C84.6871 39.1514 84.2974 39.2627 83.9869 39.4854C83.6763 39.7021 83.4449 40.0303 83.2925 40.4697C83.1402 40.9092 83.064 41.46 83.064 42.1221C83.064 42.7725 83.1461 43.3115 83.3101 43.7393C83.4742 44.167 83.7115 44.4863 84.022 44.6973C84.3326 44.9023 84.7105 45.0049 85.1558 45.0049C85.7125 45.0049 86.2076 44.9316 86.6412 44.7852C87.0748 44.6328 87.4966 44.4219 87.9068 44.1523V46.4463C87.4966 46.7041 87.066 46.8887 86.6148 47C86.1695 47.1172 85.6041 47.1758 84.9185 47.1758ZM96.0363 36.9893C96.1711 36.9893 96.3264 36.998 96.5021 37.0156C96.6838 37.0273 96.8303 37.0449 96.9416 37.0684L96.7395 39.582C96.6516 39.5527 96.5256 39.5322 96.3615 39.5205C96.2033 39.5029 96.0656 39.4941 95.9484 39.4941C95.6027 39.4941 95.2658 39.5381 94.9377 39.626C94.6154 39.7139 94.3254 39.8574 94.0676 40.0566C93.8098 40.25 93.6047 40.5078 93.4523 40.8301C93.3059 41.1465 93.2326 41.5361 93.2326 41.999V47H90.552V37.1738H92.5822L92.9777 38.8262H93.1096C93.3029 38.4922 93.5432 38.1875 93.8303 37.9121C94.1232 37.6309 94.4543 37.4082 94.8234 37.2441C95.1984 37.0742 95.6027 36.9893 96.0363 36.9893ZM101.766 37.1738V47H99.0858V37.1738H101.766ZM100.431 33.3242C100.829 33.3242 101.172 33.418 101.459 33.6055C101.746 33.7871 101.889 34.1299 101.889 34.6338C101.889 35.1318 101.746 35.4775 101.459 35.6709C101.172 35.8584 100.829 35.9521 100.431 35.9521C100.026 35.9521 99.6805 35.8584 99.3934 35.6709C99.1121 35.4775 98.9715 35.1318 98.9715 34.6338C98.9715 34.1299 99.1121 33.7871 99.3934 33.6055C99.6805 33.418 100.026 33.3242 100.431 33.3242ZM107.628 33.3242V36.5059C107.628 36.875 107.617 37.2412 107.593 37.6045C107.576 37.9678 107.552 38.249 107.523 38.4482H107.628C107.886 38.0439 108.238 37.7012 108.683 37.4199C109.128 37.1328 109.706 36.9893 110.415 36.9893C111.516 36.9893 112.41 37.4199 113.095 38.2812C113.781 39.1426 114.124 40.4053 114.124 42.0693C114.124 43.1885 113.965 44.1289 113.649 44.8906C113.332 45.6465 112.89 46.2178 112.322 46.6045C111.753 46.9854 111.094 47.1758 110.344 47.1758C109.624 47.1758 109.055 47.0469 108.639 46.7891C108.223 46.5312 107.886 46.2412 107.628 45.9189H107.444L106.996 47H104.948V33.3242H107.628ZM109.553 39.1338C109.084 39.1338 108.712 39.2305 108.437 39.4238C108.162 39.6172 107.959 39.9072 107.831 40.2939C107.707 40.6807 107.64 41.1699 107.628 41.7617V42.0518C107.628 43.0068 107.769 43.7393 108.05 44.249C108.332 44.7529 108.844 45.0049 109.588 45.0049C110.139 45.0049 110.576 44.75 110.898 44.2402C111.226 43.7305 111.39 42.9951 111.39 42.0342C111.39 41.0732 111.226 40.3496 110.898 39.8633C110.57 39.377 110.122 39.1338 109.553 39.1338ZM120.75 36.9893C121.658 36.9893 122.441 37.165 123.097 37.5166C123.753 37.8623 124.26 38.3662 124.617 39.0283C124.975 39.6904 125.153 40.499 125.153 41.4541V42.7549H118.817C118.846 43.5107 119.071 44.1055 119.493 44.5391C119.921 44.9668 120.513 45.1807 121.269 45.1807C121.896 45.1807 122.47 45.1162 122.991 44.9873C123.513 44.8584 124.049 44.665 124.6 44.4072V46.4814C124.113 46.7217 123.604 46.8975 123.07 47.0088C122.543 47.1201 121.901 47.1758 121.146 47.1758C120.161 47.1758 119.288 46.9941 118.526 46.6309C117.771 46.2676 117.176 45.7139 116.742 44.9697C116.315 44.2256 116.101 43.2881 116.101 42.1572C116.101 41.0088 116.294 40.0537 116.681 39.292C117.073 38.5244 117.618 37.9502 118.316 37.5693C119.013 37.1826 119.824 36.9893 120.75 36.9893ZM120.768 38.8965C120.246 38.8965 119.813 39.0635 119.467 39.3975C119.127 39.7314 118.931 40.2559 118.878 40.9707H122.64C122.634 40.5723 122.561 40.2178 122.42 39.9072C122.285 39.5967 122.08 39.3506 121.805 39.1689C121.535 38.9873 121.19 38.8965 120.768 38.8965Z" fill="white"/>
<path d="M0.5 16C0.5 7.43959 7.43959 0.5 16 0.5H181C189.56 0.5 196.5 7.43959 196.5 16V66C196.5 74.5604 189.56 81.5 181 81.5H16C7.43959 81.5 0.5 74.5604 0.5 66V16Z" stroke="#274C5B"/>
</svg>
